<svg width="18" height="14" viewBox="0 0 18 14" fill="none" xmlns="http://www.w3.org/2000/svg">
<path fill-rule="evenodd" clip-rule="evenodd" d="M17.1731 2.97211C17.1731 2.69401 17.0665 2.41575 16.8746 2.21554L15.4247 0.702447C15.2328 0.502071 14.9663 0.390897 14.6997 0.390897C14.4332 0.390897 14.1667 0.502071 13.9747 0.702447L6.98106 8.01236L3.84667 4.73002C3.65477 4.52981 3.38824 4.41847 3.12171 4.41847C2.85516 4.41847 2.58862 4.52981 2.39672 4.73002L0.946816 6.24329C0.754897 6.4435 0.648326 6.72158 0.648326 6.99986C0.648326 7.27793 0.754897 7.55603 0.946816 7.7564L4.80617 11.784L6.25608 13.2973C6.448 13.4975 6.71453 13.6088 6.98106 13.6088C7.2476 13.6088 7.51407 13.4975 7.70597 13.2973L9.15594 11.784L16.8746 3.72865C17.0665 3.52846 17.1731 3.25036 17.1731 2.97211Z" fill="white"/>
</svg>
